<?xml version="1.0" encoding="UTF-8" standalone="no"?>
<!DOCTYPE svg PUBLIC "-//W3C//DTD SVG 1.1//EN" "http://www.w3.org/Graphics/SVG/1.1/DTD/svg11.dtd">
<svg width="100%" height="100%" viewBox="0 0 584 482" version="1.1" xmlns="http://www.w3.org/2000/svg" xmlns:xlink="http://www.w3.org/1999/xlink" xml:space="preserve" xmlns:serif="http://www.serif.com/" style="fill-rule:evenodd;clip-rule:evenodd;stroke-linejoin:round;stroke-miterlimit:1.41421;">
    <g transform="matrix(1,0,0,1,-1375.08,-913.249)">
        <g transform="matrix(4.16667,0,0,4.16667,0,0)">
            <path d="M398.754,283.553C392.412,267.554 376.692,257.894 359.567,256.181C367.807,264.121 373.817,270.886 376.588,284.741C367.605,279.692 343.338,276.032 330.019,285.53C347.744,287.519 357.571,291.481 367.879,303.345C367.879,303.345 360.663,310.028 359.171,317.396C358.107,322.652 359.711,334.696 359.711,334.696C370.65,319.177 396.775,327.094 397.963,310.865C397.963,310.865 424.879,316.011 435.171,334.615C437.149,310.074 425.275,305.719 425.275,305.719C436.622,297.539 457.865,303.345 469.981,307.105C462.087,295.439 444.748,285.521 428.923,287.656C435.28,276.114 446.586,269.637 459.699,268.35C439.872,261.53 411.713,261.824 398.754,283.553Z" style="fill:rgb(9,135,62);fill-rule:nonzero;"/>
        </g>
        <g transform="matrix(4.16667,0,0,4.16667,0,0)">
            <path d="M411.78,219.196C390.322,236.147 392.641,277.356 395.175,297.064C396.723,297.835 398.642,298.013 400.785,296.642C400.852,284.7 401.749,266.108 406.185,253.657C412.573,235.719 422.647,230.313 422.647,230.313C422.647,218.273 411.78,219.196 411.78,219.196Z" style="fill:rgb(6,122,55);fill-rule:nonzero;"/>
        </g>
    </g>
</svg>
